inDegrees=no
num_controls=7
num_derivatives=13
num_iterations=129
num_multipliers=7
num_parameters=0
num_slacks=7
num_states=26
objective=0.449425
objective_accelerations=0.044726
objective_balance=0.004771
objective_effort=0.022679
objective_height=0.372089
objective_ligament=0.005160
solver_duration=1694.409415
status=Solve_Succeeded
success=true
DataType=double
version=3
OpenSimVersion=4.5
endheader
time	/jointset/ground_pelvis/pelvis_tilt/value	/jointset/ground_pelvis/pelvis_tx/value	/jointset/ground_pelvis/pelvis_ty/value	/jointset/hip_l/hip_flexion_l/value	/jointset/hip_l/hip_adduction_l/value	/jointset/hip_l/hip_rotation_l/value	/jointset/back/lumbar_extension/value	/jointset/patellofemoral_l/patellar_flexion_l/value	/jointset/knee_l/knee_flexion_l/value	/jointset/knee_l/knee_adduction_l/value	/jointset/knee_l/knee_rotation_l/value	/jointset/ankle_l/ankle_angle_l/value	/jointset/subtalar_l/subtalar_angle_l/value	/jointset/ground_pelvis/pelvis_tilt/speed	/jointset/ground_pelvis/pelvis_tx/speed	/jointset/ground_pelvis/pelvis_ty/speed	/jointset/hip_l/hip_flexion_l/speed	/jointset/hip_l/hip_adduction_l/speed	/jointset/hip_l/hip_rotation_l/speed	/jointset/back/lumbar_extension/speed	/jointset/patellofemoral_l/patellar_flexion_l/speed	/jointset/knee_l/knee_flexion_l/speed	/jointset/knee_l/knee_adduction_l/speed	/jointset/knee_l/knee_rotation_l/speed	/jointset/ankle_l/ankle_angle_l/speed	/jointset/subtalar_l/subtalar_angle_l/speed	/forceset/tau_hip_flexion_l	/forceset/tau_hip_adduction_l	/forceset/tau_hip_rotation_l	/forceset/tau_knee_flexion_l	/forceset/tau_ankle_angle_l	/forceset/tau_subtalar_angle_l	/forceset/tau_lumbar_extension	lambda_cid13_p0	lambda_cid13_p1	lambda_cid13_p2	lambda_cid13_p3	lambda_cid13_p4	lambda_cid13_p5	lambda_cid14_p0	/jointset/ground_pelvis/pelvis_tilt/accel	/jointset/ground_pelvis/pelvis_tx/accel	/jointset/ground_pelvis/pelvis_ty/accel	/jointset/hip_l/hip_flexion_l/accel	/jointset/hip_l/hip_adduction_l/accel	/jointset/hip_l/hip_rotation_l/accel	/jointset/back/lumbar_extension/accel	/jointset/patellofemoral_l/patellar_flexion_l/accel	/jointset/knee_l/knee_flexion_l/accel	/jointset/knee_l/knee_adduction_l/accel	/jointset/knee_l/knee_rotation_l/accel	/jointset/ankle_l/ankle_angle_l/accel	/jointset/subtalar_l/subtalar_angle_l/accel	gamma_cid13_p0	gamma_cid13_p1	gamma_cid13_p2	gamma_cid13_p3	gamma_cid13_p4	gamma_cid13_p5	gamma_cid14_p0
0	-0.04304346871638263	0.07047077433683621	0.8960938932378678	0.1955287580552426	-0.3204819287539543	-0.51336621772969	-0.1379045077516729	0.07015288079084731	0.07015288079084844	-0.1745328217234559	-0.1463395051740526	-0.06701059314715049	0.005796241244505566	0	0	0	0	0	0	0	0	0	0	0	0	0	0.1059487297661554	-0.09538838493170598	-0.03406979489779601	-0.2251244395219022	0.1732834843755796	-0.01922623607755996	-0.05189074332240937	19.15237051806561	0.1354221568514813	5.195027647321348	8.817397822182787	-519.8106318458217	-81.38150085420961	-40.7101371638382	-4.960335763682658	-2.075183689410916	-0.9111717241779788	11.84895275162529	-1.828328900241601	2.75618881185778	-2.801469590776953	7.501422971795947	7.501422971797147	0.09620172783711103	-0.4955134433709194	0.571114160781001	-1.698208427350392	-1.68899969733986e-08	8.203260600427786e-08	5.100148196168093e-08	9.642993300462283e-09	-1.081080795803625e-08	1.538227680130075e-08	-3.528786295340389e-09
0.01	-0.04328200019239137	0.07036807747072579	0.8960495285192007	0.1961033819243395	-0.3205722679191859	-0.5132285854753528	-0.1380495271862662	0.07051684337736563	0.07051684337736271	-0.1745315016157539	-0.146360204615839	-0.06698554999705891	0.005710575176107185	-0.04748812373006913	-0.02047284828544697	-0.008846043845801718	0.1144373027060773	-0.01800124901827924	0.02740551305792797	-0.02875419117092481	0.07247367743226255	0.07247367743225981	0.0002219665782801204	-0.004126743345729003	0.004949779797094582	-0.01709174132856892	0.1007980100227114	-0.09371930239594492	-0.0330056751596183	-0.2179229068836004	0.1634151079105475	-0.01565773539569068	-0.04763852683300234	16.11205530574648	-0.9007063873630227	5.381535257067445	10.09783732415821	-520.3898247269281	-83.28902646958065	-40.71747861457035	-4.610332037283756	-2.023354728935639	-0.8672878938133275	11.16799100522898	-1.776048489555298	2.714587378960733	-2.874939518088975	7.072514854157362	7.072514854156189	-0.02109630808869417	-0.3692793551241684	0.4480827275008409	-1.708454808002617	-3.953977333148982e-08	9.734843140987971e-08	9.487361701919062e-08	2.483599319905024e-08	-1.466016241093962e-07	1.495615142764928e-08	-1.097566545640226e-08
0.02	-0.04398886917762281	0.07006264825559622	0.8959175099262691	0.1978077532155175	-0.3208406246919869	-0.5128205271251934	-0.1384745976601378	0.07159597768323761	0.07159597768323778	-0.1745292199284015	-0.1464217764060892	-0.06691277448133091	0.005455232129944593	-0.09366750184472657	-0.04054646980383626	-0.01753077485288258	0.2259494844173597	-0.03560352151393011	0.05408521916387213	-0.05601020785540108	0.1430343438731626	0.1430343438731498	0.000192315920068944	-0.008174469689467598	0.009546473127274696	-0.03393539555283956	0.09564729027918294	-0.09205021986018028	-0.03194155542136275	-0.2107213742453532	0.1535467314454987	-0.01208923471382758	-0.04338631034365414	13.11716487581466	-1.945473529266514	5.570203635719145	11.31038329752365	-520.2749288043307	-85.07484235124572	-40.73915815143658	-4.698586640600359	-1.995338335999348	-0.8789091564338116	11.2639285526663	-1.748533595715979	2.611027421461016	-2.501834693487254	7.118820773523446	7.118820773523177	0.04587828053873265	-0.4797100429728352	0.5004968673981223	-1.648591006490783	-6.218954968958103e-08	1.126642568154816e-07	1.387457520767003e-07	4.00289930976382e-08	-2.823924402607561e-07	1.453002605399781e-08	-1.842254461746412e-08
0.03	-0.04515141529682797	0.06955887045197746	0.8956992869019543	0.2006131665541334	-0.3212825601539505	-0.5121492925783829	-0.1391643663321289	0.07337163571791802	0.07337163571791429	-0.1745273971401615	-0.1465235068664051	-0.06679497911661579	0.005033633674375551	-0.1386128182930245	-0.06010098903475093	-0.0260964309633483	0.3346130436639979	-0.05267385414687271	0.08004546163503622	-0.08171170379105255	0.211785115503058	0.2117851155030666	0.0002159228567449209	-0.01214679042127917	0.01402092611331461	-0.0502588497806574	0.09122381209656663	-0.0884476317383351	-0.0312813944595663	-0.20668260808325	0.1499848522742095	-0.01189202992683541	-0.03964761129727256	12.02470786073764	-1.895044643290249	5.625222499316597	11.26632263207639	-520.2096669130602	-84.18751099984945	-40.77445575997707	-4.358177389985618	-1.91928536661661	-0.8428410084903349	10.58953539899585	-1.669838808718697	2.57106976897115	-2.569533630856842	6.706386938303351	6.706386938306551	-0.01281662541709719	-0.3522504504450321	0.4221669721987972	-1.605438923063701	-8.010976887941843e-08	1.310006243138362e-07	1.569179215292316e-07	5.680937067487323e-08	-3.936140509189272e-07	9.952366711452175e-09	-2.022444241689657e-08
0.04	-0.04675654922912471	0.06886279212605378	0.8953959178825075	0.204489608642885	-0.3218919100845707	-0.5112219461850586	-0.1401041952809271	0.07582543778501524	0.07582543778501601	-0.1745240219876844	-0.1466642120064713	-0.06663218973044194	0.004452557418101029	-0.1821850644629759	-0.07900657426482245	-0.03455997387929918	0.4401552344439627	-0.06908641524523126	0.105307588467283	-0.1060222632168161	0.2786631503561847	0.278663150356209	0.0005027887674541834	-0.01596940563947906	0.01854527741902939	-0.06583095569393325	0.08680033391400174	-0.08484504361648186	-0.0306212334977547	-0.202643841921109	0.1464229731029406	-0.01169482513982371	-0.03590891225087247	10.97348784059117	-1.851817481384722	5.681369016716496	11.15840800459051	-519.5170217277024	-83.18559634447058	-40.82245038769479	-4.423972584931093	-1.865551535830697	-0.8584865175308423	10.63965485933161	-1.616979288799192	2.471404293677559	-2.22364739150967	6.744273418169727	6.744273418168277	0.09853007534533151	-0.4497689402504945	0.5104765313331107	-1.498321343582405	-9.793247142661142e-08	1.493992710305981e-07	1.745601947837221e-07	7.36224776887814e-08	-5.043290800205378e-07	5.289108730372631e-09	-2.1909948848048e-08
0.05	-0.04879134343131196	0.06798084519399741	0.8950081872070907	0.2094069620922006	-0.3226622873077064	-0.5100453049409562	-0.1412794628447024	0.07893897714661266	0.07893897714661484	-0.1745168819838739	-0.1468423794030292	-0.06642397799631372	0.003719273902105631	-0.2245613803232319	-0.09727718482363241	-0.0429844113264214	0.5427947774241975	-0.08489696076017726	0.1299195816825292	-0.1287930044162569	0.3437033568249778	0.3437033568249961	0.0008989536725535854	-0.01961617077413422	0.02307537938571488	-0.0807357839824113	0.08194276516342842	-0.08177734680565661	-0.02990894024044395	-0.1987341305167859	0.1425574473634032	-0.01087907999427675	-0.03191704500306936	9.846514499525783	-2.046101993246579	5.754984320215793	11.13461564992319	-518.7951179237358	-82.67096216977363	-40.88198148911722	-4.112610945422273	-1.791956857066037	-0.8342616371447029	9.997985088917581	-1.549297463320679	2.440912406857374	-2.268050715875102	6.332693886094558	6.332693886094517	0.00625923382140333	-0.3149231565476166	0.4210198882309454	-1.473111493756234	-1.145803395214763e-07	1.650796107323679e-07	2.025057260131307e-07	8.709180590407743e-08	-5.839442061534062e-07	-5.533340186094659e-10	-2.559528739470947e-08
0.06	-0.05124353076387155	0.06691936394812102	0.8945362443014344	0.2153350871856266	-0.3235880110420869	-0.5086255806504186	-0.1426752904668152	0.08269267849786938	0.08269267849787035	-0.174506560423858	-0.147055573022229	-0.06617111667073972	0.002839632518770295	-0.2656636905374652	-0.1149134370288213	-0.05140241992720548	0.6423095632663619	-0.1001557174942594	0.1539241977541446	-0.1501342748842525	0.4066955482881888	0.4066955482882058	0.001139100006816055	-0.02297465016777246	0.02747519570818689	-0.09510252916192026	0.07708519641283119	-0.0787096499948325	-0.02919664698313579	-0.1948244191124768	0.1386919216238592	-0.01006333484873461	-0.02792517775528031	8.756151365040962	-2.245909924140272	5.828467794044601	11.05219741094283	-517.5134683225731	-82.05075946524808	-40.95176434592216	-4.169171455726563	-1.738679865106453	-0.8572007482632127	10.01470343171752	-1.506621532626432	2.349928864951409	-1.937753245220662	6.334670417053312	6.334670417052787	0.06732636117790576	-0.3921117920471091	0.4844194024904309	-1.390704721788598	-1.311787409025589e-07	1.806454954019276e-07	2.308850786309569e-07	1.004203434331161e-07	-6.622498626875908e-07	-6.445426652555879e-09	-2.936482939886609e-08
0.07000000000000001	-0.05410098125230475	0.06568467267322162	0.893979983463483	0.2222440658090937	-0.3246634341356241	-0.5069689542642296	-0.1442768947257606	0.08706696331468518	0.08706696331468829	-0.1744939944024368	-0.1473013425779797	-0.06587450491571969	0.001819379883585774	-0.305607326320368	-0.1319174984711309	-0.05985655372136994	0.7389790972311131	-0.1148189297804163	0.1772893768574926	-0.1699679268810738	0.4678382028557575	0.4678382028557597	0.001385103269557594	-0.02614725683734548	0.03183894925724193	-0.1088310744983916	0.07195690754566815	-0.0758489863200552	-0.02848727664700976	-0.1913542414884631	0.1352531129100893	-0.009052762209488112	-0.02378142999184831	7.802357776809878	-2.541659927423081	5.902872888015365	10.87636908056085	-516.3372318054218	-81.58784422650565	-41.03033640751365	-3.874108733592131	-1.665151116119987	-0.8406740028732572	9.416996923696059	-1.429695395808998	2.313026619032147	-1.97337367337049	5.955587062379417	5.955587062377941	0.004935740034548526	-0.2750047732594347	0.4111169497738774	-1.346444457677391	-1.416286066432669e-07	1.932982745433902e-07	2.475672968751508e-07	1.103712020503965e-07	-7.069363563437772e-07	-1.089563478355329e-08	-3.08908418806561e-08
